<?xml version="1.0" standalone="no"?><!DOCTYPE svg PUBLIC "-//W3C//DTD SVG 1.1//EN" "http://www.w3.org/Graphics/SVG/1.1/DTD/svg11.dtd"><svg t="1603349493978" class="icon" viewBox="0 0 1024 1024" version="1.1" xmlns="http://www.w3.org/2000/svg" p-id="3689" xmlns:xlink="http://www.w3.org/1999/xlink" width="200" height="200"><defs><style type="text/css"></style></defs><path d="M0 0m128 0l768 0q128 0 128 128l0 768q0 128-128 128l-768 0q-128 0-128-128l0-768q0-128 128-128Z" fill="#389E0D" p-id="3690"></path><path d="M482.496 605.408c-0.928 5.12-2.08 9.056-3.456 11.84-1.376 2.784-4.608 5.824-9.664 9.056a184.384 184.384 0 0 1-38.656 18.144c-13.792 4.64-27.04 9.76-39.68 15.328a113.28 113.28 0 0 0-33.152 21.952c-9.44 9.056-15.296 21.952-17.6 38.688a115.2 115.2 0 0 0-1.728 14.976 219.104 219.104 0 0 1-1.024 13.6 22.848 22.848 0 0 1-1.376 2.432 22.848 22.848 0 0 0-1.376 2.432 2368.736 2368.736 0 0 1-54.56-4.864 1050.08 1050.08 0 0 1-50.72-6.272 610.656 610.656 0 0 1-39.008-6.976c-10.56-2.336-17.28-4.64-20-6.976-4.16-3.232-7.264-12.992-9.344-29.28-2.048-16.256-1.28-37.408 2.432-63.424 2.304-14.4 8.16-25.44 17.6-33.088 9.44-7.68 20.576-13.728 33.472-18.144a661.44 661.44 0 0 1 39.68-12.192 138.816 138.816 0 0 0 36.256-15.36c8.288-5.536 14.624-10.656 18.976-15.296 4.384-4.672 7.488-9.408 9.312-14.304 1.856-4.864 2.784-9.856 2.784-14.976 0-5.12-0.256-10.688-0.704-16.736-0.928-9.28-4.032-16.64-9.312-21.952a313.856 313.856 0 0 0-17.6-16.384 26.72 26.72 0 0 1-9.312-11.168c-2.56-5.12-4.736-10.208-6.56-15.328-1.856-5.568-3.68-11.84-5.536-18.816a34.72 34.72 0 0 1-8.288-4.16 38.912 38.912 0 0 1-7.232-8.384 68 68 0 0 1-7.264-15.36 46.24 46.24 0 0 1 0.704-33.472c1.824-5.056 4.352-9.28 7.584-12.48a301.472 301.472 0 0 1 2.08-45.344c1.824-12.544 4.8-26.016 8.96-40.416 4.16-14.4 10.368-27.424 18.656-39.04a108.8 108.8 0 0 1 24.832-27.2 128.96 128.96 0 0 1 27.968-16.352c9.44-3.968 18.976-6.624 28.64-8 9.664-1.408 19.104-2.112 28.32-2.112 23.008 0 43.712 4.864 62.112 14.624 18.4 9.76 32.224 20.224 41.408 31.36 5.984 7.904 9.792 15.232 11.392 21.984 1.6 6.72 3.808 14.528 6.56 23.36-8.736 5.12-18.048 12.64-27.968 22.624-9.888 10.016-18.496 20.096-25.856 30.336a143.936 143.936 0 0 0-20.736 43.2 397.12 397.12 0 0 0-10.336 43.936 347.904 347.904 0 0 0-3.456 48.768c-3.68 4.192-6.432 8.832-8.288 13.952a55.52 55.52 0 0 0-0.672 36.96c2.272 7.872 4.8 13.92 7.584 18.112 2.752 4.16 5.28 7.424 7.584 9.76a21.728 21.728 0 0 0 8.288 5.568c1.856 7.424 3.68 14.4 5.536 20.928 1.824 5.568 4 11.264 6.528 17.056 2.56 5.824 5.664 10.112 9.344 12.896 3.2 2.784 5.76 5.12 7.584 6.976 1.856 1.856 3.328 3.616 4.48 5.216 1.152 1.632 1.856 3.84 2.08 6.624 0.224 2.784 0.8 6.528 1.728 11.168z m367.904 128.256c1.856 6.496 3.36 14.4 4.48 23.68 1.184 9.28 1.76 18.72 1.76 28.256 0 9.504-0.704 18.464-2.08 26.816-1.376 8.384-3.456 14.656-6.208 18.816-1.856 2.784-7.264 5.568-16.224 8.384-8.96 2.784-20.16 5.344-33.472 7.68a1112.896 1112.896 0 0 1-92.832 11.84c-16.352 1.376-32.128 2.56-47.296 3.456-15.2 0.96-28.544 1.408-40.064 1.408s-24.736-0.48-39.68-1.408a1926.72 1926.72 0 0 1-46.592-3.456c-16.096-1.408-32-2.912-47.616-4.544-15.68-1.6-30.048-3.488-43.168-5.568-13.12-2.112-24.16-4.192-33.12-6.272-8.96-2.112-14.624-4.064-16.928-5.952-3.68-3.232-6.656-12.992-8.96-29.248-2.304-16.288-1.6-37.184 2.08-62.72 2.304-14.88 8.16-26.048 17.6-33.472a118.624 118.624 0 0 1 33.472-18.144c12.896-4.64 26.112-8.704 39.68-12.16a119.232 119.232 0 0 0 55.232-31.04 50.88 50.88 0 0 0 9.664-13.952c2.08-4.64 3.104-9.504 3.104-14.624 0-5.12-0.224-10.912-0.672-17.44-0.96-9.28-4.16-16.608-9.664-21.952a242.656 242.656 0 0 0-17.952-15.68c-3.232-2.784-6.08-6.72-8.64-11.84-2.528-5.12-4.704-10.24-6.56-15.36-1.824-5.568-3.68-11.84-5.504-18.816a34.72 34.72 0 0 1-8.32-4.16 38.912 38.912 0 0 1-7.232-8.384 68 68 0 0 1-7.232-15.328 44.64 44.64 0 0 1-2.784-18.464c0.48-5.824 1.6-10.56 3.456-14.304 1.856-4.64 4.384-8.832 7.616-12.544a301.472 301.472 0 0 1 2.048-45.312c1.856-12.992 4.736-26.56 8.64-40.768 3.904-14.176 10.016-27.296 18.304-39.36a108.8 108.8 0 0 1 24.832-27.2 122.88 122.88 0 0 1 57.28-24.384c9.696-1.408 18.88-2.112 27.616-2.112 23.488 0 44.416 4.896 62.816 14.656 18.432 9.76 32 20.192 40.736 31.36 10.144 12.544 17.6 26.592 22.432 42.176 4.832 15.552 8.416 30.08 10.72 43.552 2.304 15.808 3.2 31.616 2.752 47.392a26.432 26.432 0 0 1 6.208 7.68c1.376 2.784 2.656 6.4 3.808 10.784 1.152 4.416 1.28 9.92 0.32 16.384a55.584 55.584 0 0 1-5.504 20.224c-2.752 5.12-5.536 9.056-8.288 11.84a22.176 22.176 0 0 1-11.04 6.272c-1.856 6.976-3.68 13.248-5.536 18.848-1.824 5.12-4.16 10.208-6.88 15.328-2.784 5.12-5.76 8.832-8.96 11.136-3.712 3.264-7.04 6.048-10.048 8.384a60.928 60.928 0 0 0-7.936 7.296 38.4 38.4 0 0 0-5.856 8.736 47.68 47.68 0 0 0-3.808 11.84c-0.896 6.048-1.28 12.192-1.024 18.464 0.224 6.272 1.728 12.448 4.48 18.464 2.752 6.08 7.264 11.84 13.44 17.44 6.24 5.568 14.88 10.464 25.92 14.624 9.664 4.192 20.352 7.808 32.096 10.816 11.744 3.008 23.008 6.624 33.824 10.816 10.816 4.16 20.48 9.504 28.992 16 8.512 6.528 14.592 14.88 18.272 25.12z" fill="#FFFFFF" p-id="3691"></path></svg>